<?xml version="1.0" encoding="UTF-8" standalone="no"?>
<!DOCTYPE svg PUBLIC "-//W3C//DTD SVG 1.1//EN" "http://www.w3.org/Graphics/SVG/1.1/DTD/svg11.dtd">
<svg width="100%" height="100%" viewBox="0 0 375 348" version="1.1" xmlns="http://www.w3.org/2000/svg" xmlns:xlink="http://www.w3.org/1999/xlink" xml:space="preserve" xmlns:serif="http://www.serif.com/" style="fill-rule:evenodd;clip-rule:evenodd;stroke-linejoin:round;stroke-miterlimit:2;">
    <g transform="matrix(1,0,0,1,-252.461,-1640.14)">
        <g transform="matrix(0.807618,0,0,0.807618,49.2583,607.497)">
            <g transform="matrix(1,0,0,1,-3210.48,-1706.13)">
                <g transform="matrix(1,0,0,1,-1603.93,747.516)">
                    <g transform="matrix(1,0,0,1,-1318.63,678.372)">
                        <g transform="matrix(1,0,0,1,-73.0676,170.152)">
                            <path d="M6568.25,1568.25C6645.53,1538.39 6720.06,1537.42 6792.21,1561.5C6822.17,1571.49 6829.11,1591.93 6821.88,1608.83L6743.46,1771.53C6739.41,1779.17 6730.24,1786.87 6718.22,1787.74L6665.63,1789.29C6655.39,1789.31 6642.29,1781.15 6635.13,1770.33L6550.51,1615.96C6544.33,1605.05 6545.77,1576.93 6568.25,1568.25Z" style="fill:rgb(253,169,93);"/>
                        </g>
                        <g transform="matrix(1,0,0,1,-73.0676,170.152)">
                            <path d="M6470.94,1671.31C6499.11,1637.22 6524.4,1622.08 6548.89,1612.17L6631.12,1763.01C6612.66,1779.37 6595.93,1784.49 6581.3,1776.06L6475.17,1705.46C6464.5,1699.14 6462.71,1681.27 6470.94,1671.31Z" style="fill:rgb(252,147,52);"/>
                        </g>
                        <g transform="matrix(1,0,0,1,-73.0676,170.152)">
                            <path d="M6478.45,1707.64L6554.3,1758.1C6527.38,1786.63 6498.01,1830.81 6470.88,1815.23C6444.48,1800.08 6463.5,1757.45 6478.45,1707.64Z" style="fill:rgb(243,117,3);"/>
                        </g>
                        <g transform="matrix(1,0,0,1,-73.0676,170.152)">
                            <path d="M6823.63,1603.6C6854.47,1616.23 6881.71,1635.1 6904.22,1662.15C6915.07,1675.2 6909,1690.94 6898.82,1698.47L6801.01,1771.35C6792.65,1777.67 6781.86,1777.58 6768.77,1771.35L6748.87,1760.31L6823.63,1603.6Z" style="fill:rgb(252,147,52);"/>
                        </g>
                        <g transform="matrix(1,0,0,1,-73.0676,170.152)">
                            <path d="M6827.12,1751.9L6898.82,1698.47C6912.71,1739.08 6932.67,1788.75 6915.21,1803.7C6895.13,1820.89 6867.51,1792.11 6827.12,1751.9Z" style="fill:rgb(243,117,3);"/>
                        </g>
                    </g>
                    <g transform="matrix(1,0,0,0.871025,-1317.99,912.517)">
                        <ellipse cx="6565.32" cy="1794.6" rx="7.912" ry="20.84" style="fill:rgb(93,51,72);"/>
                    </g>
                    <g transform="matrix(1,0,0,0.871025,-1221.53,912.517)">
                        <ellipse cx="6565.32" cy="1794.6" rx="7.912" ry="20.84" style="fill:rgb(93,51,72);"/>
                    </g>
                    <g transform="matrix(1,0,0,1,-574.329,-325.373)">
                        <path d="M5905.11,2878.95C5905.11,2877.33 5903.79,2876.01 5902.17,2876.01L5842.83,2876.01C5841.21,2876.01 5839.89,2877.33 5839.89,2878.95C5839.89,2880.57 5841.21,2881.89 5842.83,2881.89L5902.17,2881.89C5903.79,2881.89 5905.11,2880.57 5905.11,2878.95Z" style="fill:rgb(94,52,73);"/>
                    </g>
                </g>
                <g transform="matrix(1.33626,0,0,1.46891,-1652.99,-1523.43)">
                    <path d="M3934.71,3221.46L3898.23,3224.7C3894.03,3226.04 3898.92,3232.88 3902.82,3232.37L3933.78,3229.34C3930.91,3266.09 3988.05,3273.13 3990.14,3226.28C3990.7,3224.53 3993.16,3222.62 3994.6,3222.64L4002.19,3223.05C4003.67,3223.17 4005.61,3224.69 4005.61,3225.95C4007.36,3270.79 4065.11,3269.83 4063.61,3229.24L4093.52,3231.92C4099.63,3231.45 4101.04,3225.34 4097,3224.36L4062.59,3220.91C4060.15,3215.83 4050.9,3211.98 4045.03,3211.37L4022.02,3211.1C4017.68,3211.17 4013.15,3214.06 4010.01,3217.65C4007.83,3215.34 4004.78,3214.4 4003,3214.53L3993.23,3214.39C3990.87,3214.07 3986.94,3215.93 3986.14,3218.15C3983.42,3215.17 3978.93,3211.76 3974.44,3211.6L3952.01,3211.66C3944.59,3211.29 3936.15,3217.16 3934.71,3221.46Z" style="fill:rgb(94,52,73);fill-opacity:0.87;"/>
                </g>
                <g transform="matrix(1.19203,0,0,0.874337,-2115.81,516.757)">
                    <g transform="matrix(1,0,0,1,0.648294,0)">
                        <path d="M4791.99,3021.4L4780.16,2841.95C4777.77,2827.31 4785.12,2823.05 4798.96,2823.19L4943.45,2822.7C4958.56,2822.92 4964.11,2829.42 4962.81,2840.44L4949.01,3021.4C4898.69,3031 4845.94,3029.04 4791.99,3021.4Z" style="fill:rgb(94,52,73);"/>
                    </g>
                    <g transform="matrix(1,0,0,1,0.648294,0)">
                        <path d="M4949.57,3014.12L4962.99,3011.09C4976.31,3008.45 4995.07,3020.66 4984.06,3027.96C4952.25,3049.06 4831.49,3059.15 4762.39,3030.62C4744,3023.02 4763.25,3008.09 4779.71,3011.18C4836.94,3021.91 4893.68,3024.81 4949.57,3014.12Z" style="fill:rgb(94,52,73);"/>
                    </g>
                    <g transform="matrix(1,0,0,1,0.648294,0)">
                        <path d="M4788.55,2969.16C4843.83,2982.71 4898.48,2982.24 4952.72,2972.74L4949.09,3020.38C4949,3021.1 4949.01,3021.38 4948.28,3021.53C4898.14,3032.41 4853.93,3029.91 4792.52,3021.45C4792.15,3021.4 4791.94,3021.21 4791.93,3020.47L4788.55,2969.16Z" style="fill:rgb(218,188,203);"/>
                    </g>
                </g>
            </g>
        </g>
    </g>
</svg>
