<?xml version="1.0" encoding="UTF-8" standalone="no"?>
<!DOCTYPE svg PUBLIC "-//W3C//DTD SVG 1.1//EN" "http://www.w3.org/Graphics/SVG/1.1/DTD/svg11.dtd">
<svg width="100%" height="100%" viewBox="0 0 375 222" version="1.1" xmlns="http://www.w3.org/2000/svg" xmlns:xlink="http://www.w3.org/1999/xlink" xml:space="preserve" xmlns:serif="http://www.serif.com/" style="fill-rule:evenodd;clip-rule:evenodd;stroke-linejoin:round;stroke-miterlimit:2;">
    <g transform="matrix(1,0,0,1,-675.844,-1418.91)">
        <g transform="matrix(0.807618,0,0,0.807618,49.2583,607.497)">
            <g transform="matrix(1,0,0,1,-4290.17,-1388.37)">
                <g transform="matrix(1,0,0,1,-1318.63,678.372)">
                    <g transform="matrix(1,0,0,1,-73.0676,170.152)">
                        <path d="M6568.25,1568.25C6645.53,1538.39 6720.06,1537.42 6792.21,1561.5C6822.17,1571.49 6829.11,1591.93 6821.88,1608.83L6743.46,1771.53C6739.41,1779.17 6730.24,1786.87 6718.22,1787.74L6665.63,1789.29C6655.39,1789.31 6642.29,1781.15 6635.13,1770.33L6550.51,1615.96C6544.33,1605.05 6545.77,1576.93 6568.25,1568.25Z" style="fill:rgb(253,169,93);"/>
                    </g>
                    <g transform="matrix(1,0,0,1,-73.0676,170.152)">
                        <path d="M6470.94,1671.31C6499.11,1637.22 6524.4,1622.08 6548.89,1612.17L6631.12,1763.01C6612.66,1779.37 6595.93,1784.49 6581.3,1776.06L6475.17,1705.46C6464.5,1699.14 6462.71,1681.27 6470.94,1671.31Z" style="fill:rgb(252,147,52);"/>
                    </g>
                    <g transform="matrix(1,0,0,1,-73.0676,170.152)">
                        <path d="M6478.45,1707.64L6554.3,1758.1C6527.38,1786.63 6498.01,1830.81 6470.88,1815.23C6444.48,1800.08 6463.5,1757.45 6478.45,1707.64Z" style="fill:rgb(243,117,3);"/>
                    </g>
                    <g transform="matrix(1,0,0,1,-73.0676,170.152)">
                        <path d="M6823.63,1603.6C6854.47,1616.23 6881.71,1635.1 6904.22,1662.15C6915.07,1675.2 6909,1690.94 6898.82,1698.47L6801.01,1771.35C6792.65,1777.67 6781.86,1777.58 6768.77,1771.35L6748.87,1760.31L6823.63,1603.6Z" style="fill:rgb(252,147,52);"/>
                    </g>
                    <g transform="matrix(1,0,0,1,-73.0676,170.152)">
                        <path d="M6827.12,1751.9L6898.82,1698.47C6912.71,1739.08 6932.67,1788.75 6915.21,1803.7C6895.13,1820.89 6867.51,1792.11 6827.12,1751.9Z" style="fill:rgb(243,117,3);"/>
                    </g>
                </g>
                <g transform="matrix(2.11399,0,0,1.92279,-1204.81,-3050.94)">
                    <path d="M3009.47,2866.47L3013.35,2874.29C3021.13,2893.46 3031.26,2905.2 3056.59,2899.33C3064.32,2897.54 3066.73,2888.03 3073.53,2887.98C3083.66,2887.92 3083.21,2897.41 3097.06,2898.67C3118.5,2900.61 3125.68,2895.66 3134.17,2874.85L3139.43,2862.02C3143.14,2851.55 3009.92,2852.41 3009.47,2866.47Z" style="fill:rgb(94,52,73);"/>
                </g>
                <g transform="matrix(1,0,0,0.871025,-1317.99,912.517)">
                    <ellipse cx="6565.32" cy="1794.6" rx="7.912" ry="20.84" style="fill:rgb(139,77,109);"/>
                </g>
                <g transform="matrix(1,0,0,0.871025,-1221.53,912.517)">
                    <ellipse cx="6565.32" cy="1794.6" rx="7.912" ry="20.84" style="fill:rgb(139,77,109);"/>
                </g>
                <g transform="matrix(1,0,0,1,-577.862,-324.818)">
                    <path d="M5906.44,2875.22C5906.44,2873.6 5903.28,2872.31 5902.09,2873.3C5900.64,2874.51 5899.12,2875.97 5895.28,2876.1L5842.83,2876.01C5841.21,2876.01 5839.89,2877.33 5839.89,2878.95C5839.89,2880.57 5841.21,2881.89 5842.83,2881.89L5895.39,2881.91C5900.02,2881.72 5902.33,2880.9 5904.26,2879.23C5905.87,2877.85 5906.44,2876.85 5906.44,2875.22Z" style="fill:rgb(94,52,73);"/>
                </g>
            </g>
        </g>
    </g>
</svg>
