<?xml version="1.0" encoding="UTF-8" standalone="no"?>
<!DOCTYPE svg PUBLIC "-//W3C//DTD SVG 1.1//EN" "http://www.w3.org/Graphics/SVG/1.1/DTD/svg11.dtd">
<svg width="100%" height="100%" viewBox="0 0 375 222" version="1.1" xmlns="http://www.w3.org/2000/svg" xmlns:xlink="http://www.w3.org/1999/xlink" xml:space="preserve" xmlns:serif="http://www.serif.com/" style="fill-rule:evenodd;clip-rule:evenodd;stroke-linejoin:round;stroke-miterlimit:2;">
    <g transform="matrix(1,0,0,1,-252.461,-1236.61)">
        <g transform="matrix(0.807618,0,0,0.807618,49.2583,607.497)">
            <g transform="matrix(1,0,0,1,-4814.41,-1614.09)">
                <g transform="matrix(1,0,0,1,-1318.63,678.372)">
                    <g transform="matrix(1,0,0,1,-73.0676,170.152)">
                        <path d="M6568.25,1568.25C6645.53,1538.39 6720.06,1537.42 6792.21,1561.5C6822.17,1571.49 6829.11,1591.93 6821.88,1608.83L6743.46,1771.53C6739.41,1779.17 6730.24,1786.87 6718.22,1787.74L6665.63,1789.29C6655.39,1789.31 6642.29,1781.15 6635.13,1770.33L6550.51,1615.96C6544.33,1605.05 6545.77,1576.93 6568.25,1568.25Z" style="fill:rgb(253,169,93);"/>
                    </g>
                    <g transform="matrix(1,0,0,1,-73.0676,170.152)">
                        <path d="M6470.94,1671.31C6499.11,1637.22 6524.4,1622.08 6548.89,1612.17L6631.12,1763.01C6612.66,1779.37 6595.93,1784.49 6581.3,1776.06L6475.17,1705.46C6464.5,1699.14 6462.71,1681.27 6470.94,1671.31Z" style="fill:rgb(252,147,52);"/>
                    </g>
                    <g transform="matrix(1,0,0,1,-73.0676,170.152)">
                        <path d="M6478.45,1707.64L6554.3,1758.1C6527.38,1786.63 6498.01,1830.81 6470.88,1815.23C6444.48,1800.08 6463.5,1757.45 6478.45,1707.64Z" style="fill:rgb(243,117,3);"/>
                    </g>
                    <g transform="matrix(1,0,0,1,-73.0676,170.152)">
                        <path d="M6823.63,1603.6C6854.47,1616.23 6881.71,1635.1 6904.22,1662.15C6915.07,1675.2 6909,1690.94 6898.82,1698.47L6801.01,1771.35C6792.65,1777.67 6781.86,1777.58 6768.77,1771.35L6748.87,1760.31L6823.63,1603.6Z" style="fill:rgb(252,147,52);"/>
                    </g>
                    <g transform="matrix(1,0,0,1,-73.0676,170.152)">
                        <path d="M6827.12,1751.9L6898.82,1698.47C6912.71,1739.08 6932.67,1788.75 6915.21,1803.7C6895.13,1820.89 6867.51,1792.11 6827.12,1751.9Z" style="fill:rgb(243,117,3);"/>
                    </g>
                </g>
                <g transform="matrix(1,0,0,0.871025,-1317.99,912.517)">
                    <ellipse cx="6565.32" cy="1794.6" rx="7.912" ry="20.84" style="fill:rgb(93,51,72);"/>
                </g>
                <g transform="matrix(1,0,0,0.871025,-1221.53,912.517)">
                    <ellipse cx="6565.32" cy="1794.6" rx="7.912" ry="20.84" style="fill:rgb(93,51,72);"/>
                </g>
                <g transform="matrix(0.845069,0,0,0.650822,-312.504,1302.84)">
                    <path d="M6599.78,1892.95C6603.44,1910.46 6617.11,1923.78 6634.55,1923.78C6653.11,1923.78 6668.47,1908.96 6669.62,1889.95C6669.94,1884.58 6661.18,1883.92 6660.85,1889.39C6659.99,1903.65 6648.47,1914.76 6634.55,1914.76C6621.47,1914.76 6612.14,1904.55 6608.47,1891.64C6606.81,1885.8 6598.65,1887.59 6599.78,1892.95Z" style="fill:rgb(93,51,72);"/>
                </g>
            </g>
        </g>
    </g>
</svg>
