<?xml version="1.0" standalone="no"?>
<!DOCTYPE svg PUBLIC "-//W3C//DTD SVG 20010904//EN"
 "http://www.w3.org/TR/2001/REC-SVG-20010904/DTD/svg10.dtd">
<svg version="1.0" xmlns="http://www.w3.org/2000/svg"
 width="700.000000pt" height="700.000000pt" viewBox="0 0 700.000000 700.000000"
 preserveAspectRatio="xMidYMid meet">
<metadata>
Created by potrace 1.14, written by Peter Selinger 2001-2017
</metadata>
<g transform="translate(0.000000,700.000000) scale(0.100000,-0.100000)"
fill="#000000" stroke="none">
<path d="M535 6981 c-264 -65 -464 -269 -519 -531 -14 -67 -15 -374 -13 -2980
l2 -2905 21 -60 c45 -126 83 -192 154 -271 106 -117 265 -202 412 -220 67 -9
5736 -9 5803 -1 116 15 236 66 334 142 118 91 202 219 243 373 20 77 20 89 21
2957 0 2252 -2 2895 -12 2950 -31 176 -140 343 -292 445 -67 46 -110 66 -214
96 l-80 23 -2895 0 c-2708 0 -2900 -2 -2965 -18z"/>
</g>
</svg>
